# xmcd
#
# Track frame offsets:
#	150
#	13556
#	30853
#	47746
#	62654
#	80006
#	93187
#	108121
#	122757
#	132411
#	147474
#	158546
#
# Disc length: 2373 seconds
#
# Revision: 0
# Processed by: cddbd v1.5.1PL2 Copyright (c) Steve Scherf et al.
# Submitted via: dBpowerAMP V4.0
#
DISCID=9009430c
DTITLE=Dani - Dani
DYEAR=1900
DGENRE=
TTITLE0=Outside the lines
TTITLE1=Let me fly
TTITLE2=The one
TTITLE3=Can't say no to you
TTITLE4=Sea of change
TTITLE5=Memphis at midnight
TTITLE6=A little more alive
TTITLE7=Big bad trip
TTITLE8=I can't get enough
TTITLE9=Run to you
TTITLE10=Sweat
TTITLE11=Feels good to miss you
EXTD=
EXTT0=
EXTT1=
EXTT2=
EXTT3=
EXTT4=
EXTT5=
EXTT6=
EXTT7=
EXTT8=
EXTT9=
EXTT10=
EXTT11=
PLAYORDER=
